<svg xmlns="http://www.w3.org/2000/svg" version="1.0" preserveAspectRatio="xMidYMid meet" viewBox="169 248.06 414 255.94">

<g transform="translate(0.000000,752.000000) scale(0.100000,-0.100000)" fill="#ffffff" stroke="none">
<path d="M2051 5024 c-30 -8 -77 -27 -105 -42 -65 -34 -163 -133 -198 -198 -59 -110 -58 -90 -58 -1024 0 -934 -1 -914 58 -1024 34 -65 133 -164 198 -198 114 -61 13 -58 1814 -58 1801 0 1700 -3 1814 58 65 34 164 133 198 198 59 110 58 90 58 1024 0 934 1 914 -58 1024 -34 65 -133 164 -198 198 -114 61 -13 58 -1819 57 -1409 0 -1658 -2 -1704 -15z m1609 -1264 l0 -1091 -772 3 c-762 3 -774 3 -819 24 -60 28 -114 76 -147 133 l-27 46 0 885 0 885 27 46 c47 81 122 135 207 149 25 4 380 8 789 9 l742 1 0 -1090z m1802 1057 c32 -16 75 -48 97 -73 74 -85 71 -38 71 -984 0 -946 3 -899 -71 -984 -22 -25 -65 -57 -97 -73 l-57 -28 -772 -3 -773 -3 0 1091 0 1091 773 -3 772 -3 57 -28z"/>
<path d="M2706 4417 c-17 -17 -79 -191 -225 -628 -110 -332 -201 -612 -201 -621 0 -31 24 -69 51 -84 41 -21 74 -17 107 11 25 21 41 56 87 195 l57 170 193 0 193 0 57 -172 c62 -190 81 -218 140 -218 40 0 90 38 99 76 5 19 -46 186 -194 633 -224 672 -219 661 -301 661 -28 0 -47 -7 -63 -23z m130 -559 c31 -95 59 -179 62 -185 3 -10 -26 -13 -123 -13 -97 0 -126 3 -123 13 3 6 31 90 62 185 32 94 59 172 61 172 2 0 29 -78 61 -172z"/>
<path d="M4679 4421 l-29 -29 0 -166 0 -166 -150 0 c-170 0 -209 -10 -234 -59 -20 -37 -20 -45 -1 -86 24 -49 48 -55 221 -55 l156 0 -7 -42 c-19 -110 -78 -231 -161 -328 -77 -90 -188 -238 -209 -279 -34 -67 14 -141 90 -141 41 0 61 16 105 80 22 33 75 103 118 157 43 54 99 129 124 166 l45 68 34 -53 c19 -29 81 -114 139 -188 58 -75 116 -152 130 -172 27 -41 57 -58 99 -58 62 0 109 78 82 137 -16 34 -135 194 -204 273 -81 92 -148 228 -172 348 l-7 32 162 0 c91 0 170 4 181 10 24 13 49 61 49 94 0 14 -13 40 -29 58 l-29 33 -165 3 -165 3 -4 165 -3 166 -33 29 c-44 40 -93 40 -133 0z"/>
</g>
</svg>
