 <svg
                xmlns="http://www.w3.org/2000/svg"
                width="24"
                height="25"
                viewBox="0 0 24 25"
                fill="none"
              >
                <path
                  opacity="0.2"
                  d="M8.67187 12.0982C9.44364 13.692 10.7324 14.9774 12.3281 15.7451C12.4458 15.8008 12.576 15.825 12.7059 15.8151C12.8358 15.8052 12.9608 15.7617 13.0687 15.6888L15.4125 14.1232C15.516 14.053 15.6357 14.0101 15.7603 13.9987C15.8849 13.9872 16.0104 14.0075 16.125 14.0576L20.5125 15.942C20.6625 16.0044 20.7877 16.1144 20.869 16.255C20.9504 16.3956 20.9832 16.559 20.9625 16.7201C20.8234 17.8055 20.2937 18.803 19.4723 19.526C18.6509 20.249 17.5943 20.648 16.5 20.6482C13.1185 20.6482 9.87548 19.3049 7.48439 16.9138C5.0933 14.5227 3.75 11.2797 3.75 7.89822C3.75025 6.80397 4.1492 5.7473 4.87221 4.92593C5.59522 4.10457 6.59274 3.57479 7.67812 3.43572C7.83922 3.41503 8.00266 3.44787 8.14326 3.52918C8.28386 3.61049 8.39384 3.73577 8.45625 3.88572L10.3406 8.2826C10.3896 8.39542 10.4101 8.51857 10.4003 8.64119C10.3905 8.7638 10.3507 8.88212 10.2844 8.98572L8.71875 11.367C8.64905 11.4747 8.60814 11.5985 8.59993 11.7265C8.59172 11.8545 8.61649 11.9825 8.67187 12.0982Z"
                  fill="#F07300"
                />
                <path
                  d="M8.67187 12.0982C9.44364 13.692 10.7324 14.9774 12.3281 15.7451C12.4458 15.8008 12.576 15.825 12.7059 15.8151C12.8358 15.8052 12.9608 15.7617 13.0687 15.6888L15.4125 14.1232C15.516 14.053 15.6357 14.0101 15.7603 13.9987C15.8849 13.9872 16.0104 14.0075 16.125 14.0576L20.5125 15.942C20.6625 16.0044 20.7877 16.1144 20.869 16.255C20.9504 16.3956 20.9832 16.559 20.9625 16.7201C20.8234 17.8055 20.2937 18.803 19.4723 19.526C18.6509 20.249 17.5943 20.648 16.5 20.6482C13.1185 20.6482 9.87548 19.3049 7.48439 16.9138C5.0933 14.5227 3.75 11.2797 3.75 7.89822C3.75025 6.80397 4.1492 5.7473 4.87221 4.92593C5.59522 4.10457 6.59274 3.57479 7.67812 3.43572C7.83922 3.41503 8.00266 3.44787 8.14326 3.52918C8.28386 3.61049 8.39384 3.73577 8.45625 3.88572L10.3406 8.2826C10.3896 8.39542 10.4101 8.51857 10.4003 8.64119C10.3905 8.7638 10.3507 8.88212 10.2844 8.98572L8.71875 11.367C8.64905 11.4747 8.60814 11.5985 8.59993 11.7265C8.59172 11.8545 8.61649 11.9825 8.67187 12.0982Z"
                  stroke="#F07300"
                  stroke-width="1.5"
                  stroke-linecap="round"
                  stroke-linejoin="round"
                />
                <path
                  d="M14.9453 4.14844C16.2174 4.48985 17.3774 5.15986 18.3088 6.09123C19.2401 7.0226 19.9102 8.18255 20.2516 9.45469"
                  stroke="#F07300"
                  stroke-width="1.5"
                  stroke-linecap="round"
                  stroke-linejoin="round"
                />
                <path
                  d="M14.1641 7.04688C14.9292 7.25007 15.627 7.65192 16.1867 8.21169C16.7465 8.77146 17.1484 9.46926 17.3516 10.2344"
                  stroke="#F07300"
                  stroke-width="1.5"
                  stroke-linecap="round"
                  stroke-linejoin="round"
                />
              </svg>