<svg width="19" height="20" viewBox="0 0 19 20" fill="none" xmlns="http://www.w3.org/2000/svg">
<g id="Group">
<path id="Vector" d="M12.6875 9.28125H10.1875V6.8125C10.1875 6.4375 9.875 6.125 9.46875 6.125C9.09375 6.125 8.78125 6.4375 8.78125 6.84375V9.3125H6.3125C5.9375 9.3125 5.625 9.625 5.625 10.0312C5.625 10.4062 5.9375 10.7187 6.34375 10.7187H8.8125V13.1875C8.8125 13.5625 9.125 13.875 9.53125 13.875C9.90625 13.875 10.2187 13.5625 10.2187 13.1562V10.6875H12.6875C13.0625 10.6875 13.375 10.375 13.375 9.96875C13.375 9.59375 13.0625 9.28125 12.6875 9.28125Z" fill="white"/>
<path id="Vector_2" d="M9.5 0.5625C4.28125 0.5625 0.0625 4.78125 0.0625 10C0.0625 15.2188 4.3125 19.4688 9.53125 19.4688C14.75 19.4688 19 15.2188 19 10C18.9688 4.78125 14.7188 0.5625 9.5 0.5625ZM9.5 18.0625C5.0625 18.0625 1.46875 14.4375 1.46875 10C1.46875 5.5625 5.0625 1.96875 9.5 1.96875C13.9375 1.96875 17.5625 5.5625 17.5625 10C17.5625 14.4375 13.9375 18.0625 9.5 18.0625Z" fill="white"/>
</g>
</svg>
