<svg width="26" height="26" viewBox="0 0 26 26" fill="none" xmlns="http://www.w3.org/2000/svg">
<g id="Star Icon">
<path id="Vector" d="M13.5077 20.5568L19.3226 24.2489C20.0725 24.7219 20.9956 24.0181 20.7763 23.1528L19.0919 16.5302C19.0463 16.3466 19.0535 16.1539 19.1127 15.9743C19.1719 15.7947 19.2807 15.6354 19.4264 15.5149L24.6414 11.1652C25.3222 10.5999 24.976 9.45765 24.0876 9.39997L17.2804 8.96154C17.0947 8.95073 16.9161 8.88605 16.7666 8.77541C16.617 8.66477 16.5029 8.51295 16.4382 8.33851L13.8999 1.94668C13.8327 1.76196 13.7103 1.6024 13.5493 1.48964C13.3883 1.37689 13.1966 1.31641 13 1.31641C12.8034 1.31641 12.6117 1.37689 12.4507 1.48964C12.2897 1.6024 12.1673 1.76196 12.1001 1.94668L9.56179 8.33851C9.4971 8.51295 9.383 8.66477 9.23343 8.77541C9.08385 8.88605 8.90529 8.95073 8.71955 8.96154L1.91237 9.39997C1.02397 9.45765 0.677844 10.5999 1.35856 11.1652L6.57356 15.5149C6.71932 15.6354 6.82806 15.7947 6.88726 15.9743C6.94645 16.1539 6.9537 16.3466 6.90815 16.5302L5.35057 22.6682C5.08521 23.7066 6.19282 24.5488 7.08121 23.9835L12.4923 20.5568C12.6441 20.4603 12.8202 20.4091 13 20.4091C13.1798 20.4091 13.3559 20.4603 13.5077 20.5568Z" fill="#F8D57E" stroke="#F8D57E" stroke-width="2" stroke-linecap="round" stroke-linejoin="round"/>
</g>
</svg>
